<svg width="25" height="25" viewBox="0 0 25 25" fill="none" xmlns="http://www.w3.org/2000/svg">
<path d="M12.5324 1.01319C13.6141 1.01319 15.3144 5.80219 15.9213 7.62135C16.0584 8.03224 16.4387 8.31492 16.8717 8.32892C18.8095 8.3916 23.9583 8.66398 23.9583 9.78886C23.9583 10.8925 20.3235 13.6697 18.8442 14.7542C18.4814 15.0202 18.3327 15.4889 18.4744 15.9159C19.0788 17.7364 20.525 22.4411 19.5955 23.1833C18.672 23.9207 14.7013 20.9747 13.1369 19.7561C12.762 19.4641 12.2376 19.4637 11.8625 19.7556C10.2969 20.9738 6.32737 23.9208 5.46939 23.1833C4.60447 22.4398 5.97486 17.7202 6.54264 15.9065C6.675 15.4837 6.52478 15.0246 6.16743 14.7628C4.69579 13.6845 1.04163 10.8955 1.04163 9.78886C1.04163 8.66283 6.20095 8.39105 8.13419 8.32873C8.56414 8.31487 8.94292 8.03558 9.08225 7.6286C9.70317 5.81496 11.4494 1.01319 12.5324 1.01319Z" fill="white" stroke="white" stroke-width="2" stroke-linecap="round" stroke-linejoin="round"/>
</svg>
