<svg width="59" height="25" viewBox="0 0 59 25" fill="none" xmlns="http://www.w3.org/2000/svg">
<path d="M12.5324 1.01319C13.6141 1.01319 15.3144 5.80219 15.9213 7.62135C16.0584 8.03224 16.4387 8.31492 16.8717 8.32892C18.8095 8.3916 23.9583 8.66398 23.9583 9.78886C23.9583 10.8925 20.3235 13.6697 18.8442 14.7542C18.4814 15.0202 18.3327 15.4889 18.4744 15.9159C19.0788 17.7364 20.525 22.4411 19.5955 23.1833C18.672 23.9207 14.7013 20.9747 13.1369 19.7561C12.762 19.4641 12.2376 19.4637 11.8625 19.7556C10.2969 20.9738 6.32737 23.9208 5.46939 23.1833C4.60447 22.4398 5.97486 17.7202 6.54264 15.9065C6.675 15.4837 6.52478 15.0246 6.16743 14.7628C4.69579 13.6845 1.04163 10.8955 1.04163 9.78886C1.04163 8.66283 6.20095 8.39105 8.13419 8.32873C8.56414 8.31487 8.94292 8.03558 9.08225 7.6286C9.70317 5.81496 11.4494 1.01319 12.5324 1.01319Z" fill="white" stroke="white" stroke-width="2" stroke-linecap="round" stroke-linejoin="round"/>
<path d="M45.8657 1.01319C46.9473 1.01319 48.6477 5.80219 49.2546 7.62135C49.3916 8.03224 49.772 8.31492 50.2049 8.32892C52.1427 8.3916 57.2915 8.66398 57.2915 9.78886C57.2915 10.8925 53.6567 13.6697 52.1775 14.7542C51.8146 15.0202 51.6659 15.4889 51.8077 15.9159C52.412 17.7364 53.8582 22.4411 52.9287 23.1833C52.0052 23.9207 48.0346 20.9747 46.4702 19.7561C46.0953 19.4641 45.5709 19.4637 45.1958 19.7556C43.6301 20.9738 39.6606 23.9208 38.8026 23.1833C37.9377 22.4398 39.3081 17.7202 39.8759 15.9065C40.0082 15.4837 39.858 15.0246 39.5007 14.7628C38.029 13.6845 34.3749 10.8955 34.3749 9.78886C34.3749 8.66283 39.5342 8.39105 41.4674 8.32873C41.8974 8.31487 42.2762 8.03558 42.4155 7.6286C43.0364 5.81496 44.7826 1.01319 45.8657 1.01319Z" fill="white" stroke="white" stroke-width="2" stroke-linecap="round" stroke-linejoin="round"/>
</svg>
